<?xml version="1.0" encoding="utf-8"?>
<!-- Generator: Adobe Illustrator 25.4.7, SVG Export Plug-In . SVG Version: 6.00 Build 0)  -->
<svg version="1.1" id="Layer_1" xmlns="http://www.w3.org/2000/svg" xmlns:xlink="http://www.w3.org/1999/xlink" x="0px" y="0px"
	 viewBox="0 0 290.8 181" style="enable-background:new 0 0 290.8 181;" xml:space="preserve">
<style type="text/css">
	.st0{fill:#229849;}
	.st1{fill:#FFFFFF;}
	.st2{enable-background:new    ;}
</style>
<g id="Layer_2_00000009567091200689689380000001944521884475438993_">
	<g id="Layer_1-2">
		<path class="st0" d="M179.4,66.8c8.8-6.5,12.8-15.2,13.3-25.5c0.6-11.1-1.3-21.5-10-29.5s-19.8-11-31.2-11.3
			C132.8-0.1,114.1,0.1,95.4,0c-0.7,0.1-1.5,0.2-2.2,0.4c-0.1,0.4,0.1,0.9,0,1.4c3.4,1.3,6.9,2.5,10.4,3.5
			c5.9,1.4,11.9,2.3,17.9,3.5l-0.9,4.3c7.2-5.3,10.6-6.3,15.5-4.7c-4.9,6.8-5.7,11.5-2,16.5c5.3,7.4,11.9,5,18.9,2.1l-4.2,8.9
			c9.3,0.2,15.8-4.6,21.6-10.9c-0.8,2.7-1.9,5.3-3.1,7.8c-5.5,11-12.2,20.9-23.3,27.2c-2.1,1.2-3.7,1.4-5.9-0.1
			c-6.6-4.5-13.9-6.5-21.8-4.9c-17,3.6-22.5,18.6-22.8,38.8h48.2V72.4c5.5,6.4,6.2,14,7.3,21.5h48.7C194,83,188.8,73.9,179.4,66.8"
			/>
		<path d="M116.2,55c7.9-1.7,15.2,0.4,21.8,4.9c2.2,1.5,3.8,1.3,5.9,0.1c11-6.3,17.8-16.1,23.3-27.2c1.2-2.5,2.3-5.1,3.1-7.8
			c-5.9,6.3-12.3,11.1-21.6,10.9l4.2-8.9c-7,2.8-13.6,5.2-18.9-2.1c-3.6-5-2.9-9.8,2-16.5c-4.9-1.6-8.2-0.7-15.5,4.7l0.9-4.3
			c-6-1.2-12-2.1-17.9-3.5c-3.5-1-6.9-2.1-10.3-3.4l0.2,92.1C93.7,73.6,99.2,58.6,116.2,55"/>
		<path class="st1" d="M0,120.3h13.5c3.5,0,6.1,0.7,7.8,2.2c1.6,1.4,2.5,3.5,2.4,5.7v0.2c0,3.5-1.7,5.6-5.1,6.5c4,0.7,6.1,3,6.1,7
			v0.2c0,5.6-3.7,8.4-11,8.4H0V120.3z M11.8,132.3c1,0.1,2-0.2,2.9-0.7c0.6-0.6,0.9-1.5,0.9-2.4V129c0.1-0.9-0.2-1.7-0.9-2.3
			c-0.8-0.6-1.9-0.8-2.9-0.7H8.5v6.2L11.8,132.3z M12.1,144.7c2.7,0,4-1.2,4-3.5V141c0.1-1-0.3-1.9-1-2.6c-1-0.6-2.1-0.9-3.3-0.8
			H8.5v7.1L12.1,144.7z"/>
		<polygon class="st1" points="28.2,150.5 35.8,150.5 35.8,126 28.2,119.6 		"/>
		<path class="st1" d="M46.8,151c-1.9,0.1-3.7-0.5-5.2-1.6c-1.5-1.2-2.4-3.1-2.3-5.1c0-4.8,3.9-7.2,11.8-7.2h2.1v-0.5
			c0.1-0.9-0.2-1.8-0.6-2.6c-0.6-0.6-1.4-1-2.3-0.9c-1.5-0.2-2.8,0.9-3,2.4c0,0.1,0,0.1,0,0.2h-7.1c0.1-2.4,1.2-4.6,3.2-6
			c2.2-1.4,4.8-2.1,7.4-1.9c3.2,0,5.6,0.7,7.3,2c1.8,1.4,2.7,3.5,2.7,6.4v14.3h-7.4v-2.6C52.1,150,49.9,151,46.8,151 M49.5,145.9
			c1,0,1.9-0.3,2.7-0.9c0.7-0.5,1.1-1.4,1.1-2.3v-1.4h-2c-1.1-0.1-2.3,0.1-3.4,0.5c-0.7,0.4-1.1,1.1-1,1.9
			C46.9,145.2,47.7,145.9,49.5,145.9"/>
		<path class="st1" d="M76,151c-3,0.1-6-0.9-8.3-2.9c-2.2-2-3.3-4.8-3.3-8.4v-0.3c-0.1-3.2,1.1-6.3,3.5-8.5c2.3-2,5.3-3.1,8.4-3
			c2.6-0.1,5.1,0.6,7.3,2c2.2,1.7,3.5,4.3,3.5,7h-7.1c-0.3-2.1-1.5-3.2-3.6-3.2c-2.8,0-4.2,1.9-4.2,5.6v0.3c0,3.9,1.5,5.8,4.4,5.8
			c2.3,0,3.6-1.2,3.9-3.7h6.8c0,2.6-1.1,5-3,6.7C82.2,150.2,79.5,151,76,151"/>
		<polygon class="st1" points="104.9,138.3 112.2,128.4 104.3,128.4 98.3,137.1 98.3,125.3 90.7,118.9 90.7,150.5 98.3,150.5 
			98.3,140.8 104.3,150.5 112.8,150.5 		"/>
		<path class="st1" d="M115.6,120.3h11.9c4,0,7.1,0.8,9.2,2.4s3.2,4,3.2,7.2v0.2c0.2,3.6-2.1,6.9-5.5,7.9l7.3,12.5h-9.2l-6.2-10.8
			h-2v10.8h-8.7L115.6,120.3z M127.1,134.1c2.9,0,4.4-1.2,4.4-3.7v-0.2c0.1-1-0.3-2-1.1-2.6c-1-0.6-2.1-0.9-3.3-0.8h-2.8v7.2H127.1z
			"/>
		<path class="st1" d="M164.6,129.9c-1.4-1.4-3.3-2.2-5.3-2.1c-3.5,0-5.9,1.4-7.3,4.1v-6.8l-7.6-6.4v31.7h7.6v-12.4
			c-0.1-1.1,0.3-2.3,1-3.1c0.7-0.7,1.7-1.1,2.8-1.1c2.1,0,3.2,1.2,3.2,3.7v12.8h7.6v-14.3C166.5,133.4,165.9,131.3,164.6,129.9"/>
		<path class="st1" d="M177.2,125.2c-0.8,0.7-1.9,1.1-3,1.1c-1.1,0-2.2-0.4-3-1.1c-0.8-0.7-1.2-1.7-1.2-2.8c0-1.1,0.4-2.1,1.2-2.8
			c0.8-0.8,1.9-1.2,3-1.1c1.1,0,2.2,0.4,3,1.1c0.8,0.7,1.2,1.7,1.2,2.8C178.5,123.5,178,124.5,177.2,125.2 M170.5,128.4h7.6v22.1
			h-7.6V128.4z"/>
		<path class="st1" d="M182.1,128.4h7.6v3.6c1.4-2.8,3.8-4.1,7.3-4.1c2-0.1,3.9,0.7,5.3,2.1c1.3,1.4,2,3.5,2,6.2v14.3h-7.6v-12.9
			c0-2.5-1.1-3.7-3.2-3.7c-1-0.1-2,0.3-2.8,1.1c-0.7,0.9-1.1,2-1,3.1v12.4h-7.6L182.1,128.4z"/>
		<path class="st1" d="M219.1,151c-3.1,0.1-6.2-1-8.6-3c-2.4-2.1-3.7-5.1-3.5-8.3v-0.3c-0.1-3.2,1.2-6.3,3.5-8.4
			c5-4.1,12.2-4.2,17.3-0.1c2.3,2.1,3.6,5.2,3.5,8.3v0.3c0.1,3.2-1.1,6.3-3.5,8.4C225.3,150,222.2,151.1,219.1,151 M219.1,145.3
			c2.9,0,4.4-1.9,4.4-5.8v-0.3c0-3.9-1.5-5.8-4.4-5.8s-4.4,1.9-4.4,5.7v0.3C214.6,143.3,216.1,145.3,219.1,145.3"/>
		<polygon class="st0" points="240.1,118.8 231.1,118.8 242.9,128.7 		"/>
		<polygon class="st0" points="253,118.8 248.7,133.5 246.7,140.2 246.1,139.8 233.8,129.4 240.8,150.5 251.1,150.5 252.8,145.3 
			255,138.7 261.5,118.8 		"/>
		<path class="st0" d="M283.2,137.3c3.6-1.1,5.9-4.6,5.7-8.3v-0.2c0-3.3-1.1-5.8-3.3-7.5c-2.2-1.7-5.4-2.5-9.6-2.5h-12.4v31.7h9
			v-11.3h2.1l6.4,11.4h9.6L283.2,137.3z M280.1,129.3c0,2.6-1.5,3.9-4.6,3.9h-2.9v-7.6h3c1.2-0.1,2.4,0.2,3.4,0.8
			c0.8,0.7,1.2,1.7,1.1,2.7L280.1,129.3z"/>
		<g class="st2">
			<path class="st1" d="M52.4,166.8c-0.4-1.8-1.9-2.7-3.6-2.7c-2.3,0-4.1,1.8-4.1,5.1s1.8,5.1,4.1,5.1c1.7,0,3.2-0.9,3.6-2.7h1.5
				c-0.5,2.6-2.5,4.1-5.1,4.1c-3.2,0-5.6-2.5-5.6-6.5s2.3-6.5,5.6-6.5c2.5,0,4.6,1.5,5.1,4.1H52.4z"/>
		</g>
		<g class="st2">
			<path class="st1" d="M56.2,166h1.4v1.4h0.1c0.3-0.9,1.3-1.6,2.5-1.6c0.2,0,0.6,0,0.8,0v1.5c-0.1,0-0.5-0.1-0.9-0.1
				c-1.4,0-2.4,0.9-2.4,2.2v6h-1.5V166z"/>
		</g>
		<g class="st2">
			<path class="st1" d="M61.9,170.8c0-2.9,1.7-4.9,4.3-4.9c2,0,4.1,1.2,4.1,4.7v0.6h-6.9c0.1,2,1.2,3.1,3,3.1c1.1,0,2-0.5,2.4-1.5
				l1.4,0.4c-0.4,1.4-1.8,2.4-3.8,2.4C63.6,175.7,61.9,173.7,61.9,170.8z M68.8,170c0-1.6-1-2.8-2.6-2.8c-1.7,0-2.7,1.3-2.8,2.8
				H68.8z"/>
			<path class="st1" d="M72,172.8c0-2.2,1.9-2.6,3.7-2.8c1.7-0.2,2.4-0.2,2.4-0.9v0c0-1.2-0.7-1.9-2-1.9c-1.4,0-2.1,0.7-2.5,1.4
				l-1.4-0.5c0.7-1.7,2.4-2.2,3.8-2.2c1.2,0,3.5,0.3,3.5,3.4v6.2h-1.5v-1.3h-0.1c-0.3,0.6-1.2,1.5-2.8,1.5
				C73.5,175.7,72,174.6,72,172.8z M78.1,172v-1.3c-0.2,0.3-1.9,0.5-2.5,0.5c-1.1,0.1-2.1,0.5-2.1,1.6c0,1,0.8,1.5,2,1.5
				C77.2,174.4,78.1,173.2,78.1,172z"/>
			<path class="st1" d="M86.4,167.2h-2v5.5c0,1.2,0.6,1.4,1.3,1.4c0.3,0,0.5,0,0.6-0.1l0.3,1.3c-0.2,0.1-0.5,0.2-1.1,0.2
				c-1.2,0-2.6-0.8-2.6-2.4v-5.9h-1.4V166h1.4v-2.3h1.5v2.3h2V167.2z"/>
			<path class="st1" d="M88.3,163.4c0-0.5,0.5-1,1-1s1,0.4,1,1s-0.5,1-1,1S88.3,164,88.3,163.4z M88.6,166H90v9.5h-1.5V166z"/>
			<path class="st1" d="M94.1,175.5h-1.5V166h1.4v1.5h0.1c0.4-1,1.3-1.6,2.8-1.6c1.9,0,3.2,1.2,3.2,3.6v6h-1.5v-5.9
				c0-1.5-0.8-2.4-2.2-2.4c-1.4,0-2.4,0.9-2.4,2.6V175.5z"/>
			<path class="st1" d="M102.8,177.3l1.2-0.8c0.4,0.5,1,1.4,2.7,1.4c1.5,0,2.6-0.7,2.6-2.3v-1.9h-0.1c-0.3,0.5-0.9,1.6-2.8,1.6
				c-2.3,0-4-1.7-4-4.6c0-2.9,1.7-4.8,4-4.8c1.8,0,2.4,1.1,2.8,1.6h0.1V166h1.4v9.7c0,2.4-1.8,3.5-4.1,3.5
				C104.5,179.2,103.4,178.3,102.8,177.3z M109.3,170.7c0-2-0.9-3.5-2.7-3.5c-1.8,0-2.8,1.6-2.8,3.5c0,2,0.9,3.4,2.8,3.4
				C108.3,174,109.3,172.7,109.3,170.7z"/>
		</g>
		<g class="st2">
			<path class="st1" d="M122.4,167.2h-2v5.5c0,1.2,0.6,1.4,1.3,1.4c0.3,0,0.5,0,0.6-0.1l0.3,1.3c-0.2,0.1-0.5,0.2-1.1,0.2
				c-1.2,0-2.6-0.8-2.6-2.4v-5.9h-1.4V166h1.4v-2.3h1.5v2.3h2V167.2z"/>
		</g>
		<g class="st2">
			<path class="st1" d="M126.2,175.5h-1.5v-12.6h1.5v4.6h0.1c0.4-1,1.3-1.6,2.8-1.6c1.9,0,3.2,1.1,3.2,3.6v6h-1.5v-5.9
				c0-1.5-0.8-2.4-2.2-2.4c-1.4,0-2.5,0.9-2.5,2.6V175.5z"/>
			<path class="st1" d="M134.5,170.8c0-2.9,1.7-4.9,4.3-4.9c2,0,4.1,1.2,4.1,4.7v0.6H136c0.1,2,1.2,3.1,3,3.1c1.1,0,2-0.5,2.4-1.5
				l1.4,0.4c-0.4,1.4-1.8,2.4-3.8,2.4C136.2,175.7,134.5,173.7,134.5,170.8z M141.4,170c0-1.6-1-2.8-2.6-2.8c-1.7,0-2.7,1.3-2.8,2.8
				H141.4z"/>
			<path class="st1" d="M149.5,170.8c0-2.9,1.7-4.9,4.3-4.9c2,0,4.1,1.2,4.1,4.7v0.6H151c0.1,2,1.2,3.1,3,3.1c1.1,0,2-0.5,2.4-1.5
				l1.4,0.4c-0.4,1.4-1.8,2.4-3.8,2.4C151.2,175.7,149.5,173.7,149.5,170.8z M156.4,170c0-1.6-1-2.8-2.6-2.8c-1.7,0-2.7,1.3-2.8,2.8
				H156.4z"/>
			<path class="st1" d="M164.3,168.1L164.3,168.1l3.4-5.3h1.8l-4,6.3l4,6.3h-1.8l-3.3-5.2h-0.1l-3.3,5.2h-1.8l4.1-6.3l-4.1-6.3h1.8
				L164.3,168.1z"/>
		</g>
		<g class="st2">
			<path class="st1" d="M171.4,162.8h4.3c3,0,4.3,1.6,4.3,3.9c0,1.7-0.8,3-2.4,3.5l2.9,5.2h-1.8l-2.7-4.9c-0.1,0-0.2,0-0.3,0h-2.8
				v4.9h-1.5V162.8z M175.6,169.1c2,0,2.8-0.9,2.8-2.4s-0.8-2.5-2.8-2.5h-2.7v5H175.6z"/>
		</g>
		<g class="st2">
			<path class="st1" d="M181.7,170.8c0-3,1.7-4.9,4.3-4.9s4.3,1.9,4.3,4.9c0,2.9-1.7,4.9-4.3,4.9S181.7,173.7,181.7,170.8z
				 M188.9,170.8c0-1.9-0.9-3.6-2.8-3.6c-1.9,0-2.8,1.7-2.8,3.6c0,1.9,0.9,3.6,2.8,3.6C188,174.4,188.9,172.7,188.9,170.8z"/>
		</g>
		<g class="st2">
			<path class="st1" d="M192.5,166h1.4v1.4h0.1c0.3-0.9,1.3-1.6,2.5-1.6c0.2,0,0.6,0,0.8,0v1.5c-0.1,0-0.5-0.1-0.9-0.1
				c-1.4,0-2.4,0.9-2.4,2.2v6h-1.5V166z"/>
		</g>
		<g class="st2">
			<path class="st1" d="M198.2,170.8c0-3,1.7-4.9,4-4.9c1.8,0,2.4,1.1,2.7,1.6h0.1v-4.7h1.5v12.6h-1.4V174H205
				c-0.3,0.5-0.9,1.7-2.8,1.7C199.9,175.7,198.2,173.8,198.2,170.8z M205.2,170.7c0-2.1-0.9-3.6-2.7-3.6c-1.8,0-2.8,1.6-2.8,3.6
				c0,2,0.9,3.6,2.8,3.6C204.2,174.4,205.2,172.9,205.2,170.7z"/>
			<path class="st1" d="M209.1,163.4c0-0.5,0.5-1,1-1c0.6,0,1,0.4,1,1s-0.5,1-1,1C209.6,164.4,209.1,164,209.1,163.4z M209.4,166
				h1.5v9.5h-1.5V166z"/>
			<path class="st1" d="M215,175.5h-1.5V166h1.4v1.5h0.1c0.4-1,1.3-1.6,2.8-1.6c1.9,0,3.2,1.2,3.2,3.6v6h-1.5v-5.9
				c0-1.5-0.8-2.4-2.2-2.4c-1.4,0-2.4,0.9-2.4,2.6V175.5z"/>
			<path class="st1" d="M223.3,172.8c0-2.2,1.9-2.6,3.7-2.8c1.7-0.2,2.4-0.2,2.4-0.9v0c0-1.2-0.7-1.9-2-1.9c-1.4,0-2.1,0.7-2.5,1.4
				l-1.4-0.5c0.7-1.7,2.4-2.2,3.8-2.2c1.2,0,3.5,0.3,3.5,3.4v6.2h-1.5v-1.3h-0.1c-0.3,0.6-1.2,1.5-2.8,1.5
				C224.7,175.7,223.3,174.6,223.3,172.8z M229.4,172v-1.3c-0.2,0.3-1.9,0.5-2.5,0.5c-1.1,0.1-2.1,0.5-2.1,1.6c0,1,0.8,1.5,2,1.5
				C228.4,174.4,229.4,173.2,229.4,172z"/>
		</g>
		<g class="st2">
			<path class="st1" d="M233.5,166h1.4v1.4h0.1c0.3-0.9,1.3-1.6,2.5-1.6c0.2,0,0.6,0,0.8,0v1.5c-0.1,0-0.5-0.1-0.9-0.1
				c-1.4,0-2.4,0.9-2.4,2.2v6h-1.5V166z"/>
		</g>
		<g class="st2">
			<path class="st1" d="M240.1,178.8l0.4-1.3c1.1,0.3,1.7,0.1,2.2-1.3l0.3-0.7l-3.5-9.5h1.6l2.6,7.5h0.1l2.6-7.5h1.6l-4,10.8
				c-0.5,1.5-1.5,2.2-2.8,2.2C240.7,179,240.2,178.9,240.1,178.8z"/>
		</g>
	</g>
</g>
</svg>
