<?xml version="1.0" encoding="UTF-8"?>
<svg id="Layer_2" data-name="Layer 2" xmlns="http://www.w3.org/2000/svg" viewBox="0 0 885.41 258.47">
  <defs>
    <style>
      .cls-1 {
        stroke-width: .75px;
      }

      .cls-1, .cls-2, .cls-3, .cls-4, .cls-5, .cls-6, .cls-7, .cls-8, .cls-9, .cls-10, .cls-11, .cls-12, .cls-13, .cls-14, .cls-15, .cls-16, .cls-17, .cls-18, .cls-19, .cls-20 {
        stroke: #fff;
      }

      .cls-1, .cls-2, .cls-3, .cls-4, .cls-5, .cls-6, .cls-7, .cls-8, .cls-10, .cls-11, .cls-13, .cls-14, .cls-15, .cls-16, .cls-17, .cls-18, .cls-19, .cls-20 {
        fill: none;
      }

      .cls-1, .cls-2, .cls-4, .cls-5, .cls-6, .cls-7, .cls-8, .cls-9, .cls-10, .cls-11, .cls-12, .cls-13, .cls-14, .cls-15, .cls-16, .cls-17, .cls-18, .cls-19 {
        stroke-miterlimit: 10;
      }

      .cls-2 {
        stroke-width: .76px;
      }

      .cls-3, .cls-16 {
        stroke-width: 3.33px;
      }

      .cls-3, .cls-16, .cls-18, .cls-20 {
        stroke-linecap: round;
      }

      .cls-3, .cls-20 {
        stroke-linejoin: bevel;
      }

      .cls-4 {
        stroke-width: .75px;
      }

      .cls-5 {
        stroke-width: 1.29px;
      }

      .cls-6 {
        stroke-width: 1.9px;
      }

      .cls-7 {
        stroke-width: 1.7px;
      }

      .cls-8 {
        stroke-width: 1.98px;
      }

      .cls-9 {
        stroke-width: .68px;
      }

      .cls-9, .cls-21, .cls-22, .cls-23, .cls-12 {
        fill: #fff;
      }

      .cls-10 {
        stroke-width: .74px;
      }

      .cls-11 {
        stroke-width: .75px;
      }

      .cls-21 {
        font-family: MontserratRoman-Medium, Montserrat;
        font-size: 44.22px;
        font-variation-settings: 'wght' 500;
        font-weight: 500;
        letter-spacing: .9em;
      }

      .cls-22, .cls-12, .cls-24 {
        stroke-width: 0px;
      }

      .cls-23 {
        font-family: MontserratRoman-Bold, Montserrat;
        font-size: 75.8px;
        font-variation-settings: 'wght' 700;
        font-weight: 700;
        letter-spacing: -.05em;
      }

      .cls-13 {
        stroke-width: .75px;
      }

      .cls-14, .cls-18 {
        stroke-width: .83px;
      }

      .cls-15 {
        stroke-width: 1.23px;
      }

      .cls-24 {
        fill: #00193c;
      }

      .cls-17 {
        stroke-width: .76px;
      }

      .cls-19 {
        stroke-width: .75px;
      }

      .cls-20 {
        stroke-width: .43px;
      }
    </style>
  </defs>
  <g id="Layer_2-2" data-name="Layer 2">
    <g>
      <g>
        <g>
          <g>
            <circle class="cls-22" cx="262.64" cy="104.13" r="9.11"/>
            <polygon class="cls-22" points="270.84 117.05 254.5 120.5 254.56 167.1 270.9 167.1 270.84 117.05"/>
          </g>
          <path class="cls-22" d="M242.55,153.09l-5.08-13.08-15.21-39.1h-15.18l-.03.07-15.28,39.03-5.11,13.08-5.49,14.01h14.41l5.49-14.01h26.25l5.46,14.01h15.23l-5.46-14.01ZM206.18,140.01l8.06-20.57,8.01,20.57h-16.06Z"/>
        </g>
        <g>
          <g>
            <ellipse class="cls-6" cx="21.71" cy="132.83" rx="7.04" ry="11.79" transform="translate(-111.93 148.81) rotate(-87.53)"/>
            <ellipse class="cls-15" cx="32.28" cy="119.37" rx="7.88" ry="4.45" transform="translate(-18.29 6.53) rotate(-9.01)"/>
            <ellipse class="cls-5" cx="50.8" cy="122.99" rx="4.63" ry="8.21" transform="translate(-74.26 168.45) rotate(-87.53)"/>
            <ellipse class="cls-8" cx="45.88" cy="139.43" rx="12.51" ry="7.24" transform="translate(-21.26 8.9) rotate(-9.01)"/>
          </g>
          <g>
            <ellipse class="cls-12" cx="21.32" cy="132.4" rx="1.1" ry="1.84" transform="translate(-111.88 148) rotate(-87.53)"/>
            <ellipse class="cls-12" cx="32.27" cy="119.31" rx="1.16" ry=".65" transform="translate(-18.28 6.52) rotate(-9.01)"/>
            <ellipse class="cls-12" cx="50.73" cy="123.03" rx=".82" ry="1.36" transform="translate(-74.37 168.41) rotate(-87.53)"/>
            <ellipse class="cls-12" cx="45.88" cy="139.56" rx="1.77" ry="1.03" transform="translate(-21.29 8.91) rotate(-9.01)"/>
            <path class="cls-22" d="M24.21,131.09s4.29-2.34,7.07-3.8c1.16-.61,2.02-.9,2.43-1.82.64-1.41.02-3.75-.33-5.02.4.37,1.55,1.6,2.28,2.21.7.58,1.42.96,2.07,1.27.92.44,1.82.5,3.74.34,1.72-.14,4.41-.58,6.77-1.1-.7.44-1.82,1.12-3.07,1.64-1.73.72-2.61.75-3.11,1.52-.57.88-.25,2.02.23,3.47.61,1.87,1.55,4.19,2.75,7.01-2.24-2.44-3.94-4.41-5.04-5.92-.81-1.11-1.48-2.11-2.79-2.61-1.44-.55-2.79-.18-4.27.25-4.61,1.35-8.72,2.55-8.72,2.55Z"/>
          </g>
        </g>
        <g>
          <path class="cls-7" d="M115.96,209.25c0,1.55-1.46,2.95-3.89,4.04-2.96,1.31-7.36,2.16-12.28,2.16s-9.34-.85-12.3-2.16c-2.43-1.1-3.89-2.5-3.89-4.04,0-3.41,7.24-6.19,16.19-6.19s16.18,2.78,16.18,6.19Z"/>
          <path class="cls-7" d="M115.96,209.25v8.07c0,1.65-1.66,3.13-4.38,4.24-2.95,1.21-7.14,1.96-11.8,1.96s-8.87-.75-11.82-1.96c-2.71-1.12-4.38-2.6-4.38-4.24v-8.07c0,1.55,1.46,2.95,3.89,4.04,2.96,1.31,7.37,2.16,12.3,2.16s9.32-.85,12.28-2.16c2.43-1.1,3.89-2.5,3.89-4.04Z"/>
          <path class="cls-7" d="M115.96,217.32v8.47c0,1.53-1.45,2.93-3.84,4.03h-.02c-2.96,1.33-7.37,2.18-12.32,2.18s-9.37-.85-12.33-2.18h-.02c-2.4-1.1-3.84-2.5-3.84-4.03v-8.47c0,1.65,1.66,3.13,4.38,4.24,2.95,1.21,7.14,1.96,11.82,1.96s8.85-.75,11.8-1.96c2.71-1.12,4.38-2.6,4.38-4.24Z"/>
          <path class="cls-7" d="M115.96,225.8v8.04c0,3.43-7.24,6.21-16.18,6.21s-16.19-2.78-16.19-6.21v-8.04c0,1.53,1.45,2.93,3.84,4.03h.02c2.96,1.33,7.39,2.18,12.33,2.18s9.35-.85,12.32-2.18h.02c2.4-1.1,3.84-2.5,3.84-4.03Z"/>
        </g>
        <g>
          <circle class="cls-16" cx="100.51" cy="221.69" r="35.11"/>
          <path class="cls-16" d="M71.88,130.83c0,5.48-1.25,10.65-3.5,15.28-5.68,11.73-17.69,19.84-31.61,19.84-19.41,0-35.12-15.73-35.12-35.12s15.71-35.1,35.12-35.1c13.4,0,25.03,7.49,30.94,18.51,2.66,4.94,4.16,10.59,4.16,16.59Z"/>
          <path class="cls-16" d="M68.39,146.1c2.25-4.63,3.5-9.8,3.5-15.28h57.4"/>
          <line class="cls-16" x1="114.01" y1="146.1" x2="100.9" y2="159.22"/>
          <line class="cls-16" x1="151.98" y1="146.1" x2="114.01" y2="146.1"/>
          <path class="cls-16" d="M113.91,114.23h38.06v16.59h-80.09c0-6.01-1.5-11.65-4.16-16.59"/>
          <line class="cls-16" x1="100.9" y1="186.6" x2="100.9" y2="159.22"/>
          <line class="cls-16" x1="100.9" y1="101.22" x2="100.9" y2="71.86"/>
          <path class="cls-16" d="M179.45,55.69l-11.2,11.2-5.11,5.11-11.17,11.17v127.11h127.09l11.2-11.2,16.23-16.23V55.69h-127.04ZM295.35,177.54l-21.54,21.54h-110.67v-110.81l21.35-21.37h110.85v110.65Z"/>
          <line class="cls-3" x1="113.91" y1="114.23" x2="100.9" y2="101.22"/>
          <polygon class="cls-20" points="207.03 100.92 207.08 100.92 207.05 100.98 207.03 100.92"/>
          <circle class="cls-16" cx="99.87" cy="36.78" r="35.11"/>
        </g>
        <g>
          <g>
            <g>
              <g>
                <circle class="cls-22" cx="99.7" cy="13.99" r="1.8"/>
                <circle class="cls-22" cx="106.43" cy="17.37" r="1.8"/>
                <circle class="cls-22" cx="92.94" cy="17.37" r="1.8"/>
                <circle class="cls-22" cx="83.13" cy="20.16" r="1.8"/>
                <circle class="cls-22" cx="80.39" cy="30.01" r="1.8"/>
                <circle class="cls-22" cx="77" cy="36.71" r="1.8"/>
                <circle class="cls-22" cx="80.38" cy="43.41" r="1.8"/>
                <circle class="cls-22" cx="83.2" cy="53.09" r="1.8"/>
                <circle class="cls-22" cx="93.03" cy="56.04" r="1.8"/>
                <circle class="cls-22" cx="106.46" cy="56.04" r="1.8"/>
                <circle class="cls-22" cx="116.27" cy="53.3" r="1.8"/>
                <circle class="cls-22" cx="122.37" cy="36.84" r="1.8"/>
                <circle class="cls-22" cx="118.99" cy="43.47" r="1.8"/>
                <circle class="cls-22" cx="118.99" cy="30.07" r="1.8"/>
                <circle class="cls-22" cx="116.2" cy="20.18" r="1.8"/>
                <circle class="cls-22" cx="99.75" cy="59.38" r="1.8"/>
              </g>
              <polygon class="cls-9" points="108.8 30.73 108.8 42.81 107.29 44.33 105.67 45.94 93.59 45.94 91.99 44.33 90.48 42.81 90.48 30.73 92.11 29.1 93.61 27.6 105.66 27.6 107.2 29.13 108.8 30.73"/>
            </g>
            <g>
              <polyline class="cls-18" points="118.99 30.08 117.73 31.34 115.6 33.47"/>
              <polyline class="cls-18" points="93.03 56.04 94.29 54.78 96.49 52.58"/>
              <polyline class="cls-14" points="107.21 29.13 113.45 22.92 113.53 22.84 114.92 21.44 116.2 20.17"/>
              <polyline class="cls-14" points="83.19 53.09 84.47 51.81 85.71 50.58 85.89 50.4 92 44.32"/>
              <polyline class="cls-18" points="118.99 43.46 117.73 42.19 117.66 42.13 115.36 39.83"/>
              <polyline class="cls-18" points="96.49 20.92 94.19 18.63 92.93 17.36"/>
              <polyline class="cls-18" points="106.43 17.36 105.16 18.63 102.88 20.91"/>
              <polyline class="cls-18" points="80.38 43.41 81.64 42.14 81.66 42.13 83.96 39.83"/>
              <polyline class="cls-14" points="107.29 44.32 113.55 50.58 115 52.03 116.26 53.29"/>
              <polyline class="cls-14" points="83.19 20.17 84.42 21.4 85.89 22.87 85.94 22.92 92.11 29.09"/>
              <polyline class="cls-18" points="83.84 33.47 81.64 31.27 80.38 30.01"/>
              <polyline class="cls-18" points="106.46 56.04 105.2 54.78 102.88 52.46"/>
              <line class="cls-4" x1="90.48" y1="31.26" x2="87.12" y2="31.26"/>
              <polyline class="cls-10" points="108.81 31.26 112.1 31.26 112.27 31.26"/>
              <line class="cls-14" x1="85.94" y1="22.92" x2="85.89" y2="22.92"/>
              <polyline class="cls-14" points="102.88 22.92 100.87 22.92 99.7 22.92 98.49 22.92 96.49 22.92"/>
              <polyline class="cls-18" points="109.02 33.47 113.53 33.47 115.6 33.47"/>
              <polyline class="cls-18" points="83.84 33.47 85.89 33.47 90.32 33.47"/>
              <polyline class="cls-18" points="109.24 39.83 113.53 39.83 115.36 39.83"/>
              <polyline class="cls-18" points="90.22 39.83 85.89 39.83 83.96 39.83"/>
              <line class="cls-17" x1="90.48" y1="42.13" x2="87.05" y2="42.13"/>
              <line class="cls-19" x1="112.27" y1="42.13" x2="108.81" y2="42.13"/>
              <line class="cls-1" x1="94.16" y1="49.37" x2="94.16" y2="45.94"/>
              <line class="cls-13" x1="94.16" y1="27.6" x2="94.16" y2="24.15"/>
              <line class="cls-14" x1="85.89" y1="22.92" x2="85.89" y2="22.87"/>
              <line class="cls-11" x1="105.15" y1="49.37" x2="105.15" y2="45.94"/>
              <line class="cls-2" x1="105.15" y1="27.6" x2="105.15" y2="24.08"/>
              <polyline class="cls-14" points="113.53 33.47 113.53 35.54 113.53 36.8 113.53 38 113.53 39.83"/>
              <polyline class="cls-18" points="102.88 46.19 102.88 50.58 102.88 52.46"/>
              <polyline class="cls-18" points="102.88 27.33 102.88 22.92 102.88 20.91"/>
              <line class="cls-14" x1="96.49" y1="46.09" x2="96.34" y2="45.94"/>
              <polyline class="cls-18" points="96.49 46.09 96.49 50.58 96.49 52.58"/>
              <polyline class="cls-18" points="96.49 20.92 96.49 22.92 96.49 27.3"/>
              <polyline class="cls-14" points="122.37 36.7 113.53 36.7 108.81 36.7"/>
              <line class="cls-14" x1="90.48" y1="36.7" x2="77" y2="36.7"/>
              <line class="cls-14" x1="99.7" y1="59.39" x2="99.7" y2="45.94"/>
              <line class="cls-14" x1="99.7" y1="27.6" x2="99.7" y2="14"/>
            </g>
          </g>
          <g>
            <g>
              <circle class="cls-24" cx="102.77" cy="34.39" r=".78"/>
              <polygon class="cls-24" points="103.47 35.49 102.08 35.79 102.09 39.76 103.48 39.76 103.47 35.49"/>
            </g>
            <path class="cls-24" d="M101.06,38.57l-.43-1.12-1.3-3.33h-1.3s-1.3,3.33-1.3,3.33l-.44,1.12-.47,1.19h1.23l.47-1.19h2.24l.47,1.19h1.3l-.47-1.19ZM97.96,37.45l.69-1.75.68,1.75h-1.37Z"/>
          </g>
        </g>
      </g>
      <g>
        <text class="cls-23" transform="translate(363.8 126.69)"><tspan x="0" y="0">CONFERENCE</tspan></text>
        <text class="cls-21" transform="translate(363.8 186.28)"><tspan x="0" y="0">NAIROBI</tspan></text>
      </g>
    </g>
  </g>
</svg>